<svg id="Layer_1" data-name="Layer 1" xmlns="http://www.w3.org/2000/svg" xmlns:xlink="http://www.w3.org/1999/xlink" width="203.639" height="56.428" viewBox="0 0 203.639 56.428">
  <defs>
    <linearGradient id="linear-gradient" x1="0.66" y1="1.032" x2="0.24" y2="0.375" gradientUnits="objectBoundingBox">
      <stop offset="0" stop-color="#92278f"/>
      <stop offset="1" stop-color="#485fab"/>
    </linearGradient>
  </defs>
  <path id="Path_1623" data-name="Path 1623" d="M0,36.321,19.554,21.651,0,2.75Z" transform="translate(0 -1.394)" fill="url(#linear-gradient)"/>
  <path id="Path_1624" data-name="Path 1624" d="M41.85,21.485S60.554,3.292,61.134,2.84V36.549H59.965L59.92,11.413,41.85,28.388Z" transform="translate(-21.289 -1.439)" fill="#fff"/>
  <path id="Path_1625" data-name="Path 1625" d="M232.678,17.173v17.2L206.815,6.609l-.064,27.759H204.58V.92s19.471,20.375,25.828,27.636V17.173Z" transform="translate(-104.068 -0.463)" fill="#fff"/>
  <path id="Path_1626" data-name="Path 1626" d="M383.959.92V2.939H370.4V34.368h-2.309V2.939H354.48V.92Z" transform="translate(-180.32 -0.463)" fill="#fff"/>
  <path id="Path_1627" data-name="Path 1627" d="M117.962,3.866a17.112,17.112,0,0,1,15.476,0,12.249,12.249,0,0,1,1.661,1.12l.064.049,1.793-1.376-.1-.079a13.005,13.005,0,0,0-2.2-1.474,20.074,20.074,0,0,0-17.908-.01,14.543,14.543,0,0,0-5.9,5.994,19.068,19.068,0,0,0-2.064,9.1,20.591,20.591,0,0,0,1.15,7.065l.044.123,1.965-1.513V22.8a19.412,19.412,0,0,1-.791-5.611,17.609,17.609,0,0,1,1.759-8.082,12.484,12.484,0,0,1,5.041-5.242Z" transform="translate(-55.34 0.011)" fill="#fff"/>
  <path id="Path_1628" data-name="Path 1628" d="M147.947,21.618l-.044-.128-1.995,1.528v.064a19.422,19.422,0,0,1,.644,5.046,17.619,17.619,0,0,1-1.759,8.087,12.469,12.469,0,0,1-5.021,5.267,17.011,17.011,0,0,1-15.5.02,12.55,12.55,0,0,1-1.228-.791l-.059-.044L121.2,42.046l.1.079a15.95,15.95,0,0,0,1.764,1.13,18.247,18.247,0,0,0,8.937,2.1,18.439,18.439,0,0,0,8.962-2.1,14.425,14.425,0,0,0,5.9-5.994,19.441,19.441,0,0,0,2.059-9.133A20.694,20.694,0,0,0,147.947,21.618Z" transform="translate(-61.653 -10.926)" fill="#fff"/>
  <path id="Path_1629" data-name="Path 1629" d="M314.8,49.127v2.014H288.98V33.95h20.2v2.1H291.289V49.127Z" transform="translate(-147.001 -17.265)" fill="#fff"/>
  <rect id="Rectangle_373" data-name="Rectangle 373" width="25.853" height="2.019" transform="translate(141.979 0.457)" fill="#fff"/>
  <path id="Path_1630" data-name="Path 1630" d="M50.167,103.164a2.653,2.653,0,0,1,1.032.87l-.757.629a1.749,1.749,0,0,0-.678-.742,2.1,2.1,0,0,0-1.066-.236,1.882,1.882,0,0,0-1.022.236.712.712,0,0,0-.359.609.6.6,0,0,0,.354.545,3.989,3.989,0,0,0,1.253.349,6.333,6.333,0,0,1,1.346.349A1.67,1.67,0,0,1,51,106.3a1.3,1.3,0,0,1,.231.781,1.346,1.346,0,0,1-.295.87,2.009,2.009,0,0,1-.879.585,3.955,3.955,0,0,1-1.312.2,3.038,3.038,0,0,1-2.7-1.155l.717-.644a1.892,1.892,0,0,0,.781.757,2.653,2.653,0,0,0,1.194.241,2.2,2.2,0,0,0,1.061-.211.653.653,0,0,0,.388-.6.56.56,0,0,0-.349-.491,4.191,4.191,0,0,0-1.214-.339,6.519,6.519,0,0,1-1.376-.359,1.734,1.734,0,0,1-.766-.54,1.268,1.268,0,0,1-.236-.776,1.425,1.425,0,0,1,.295-.875,1.965,1.965,0,0,1,.85-.629,3.331,3.331,0,0,1,1.3-.236A3.562,3.562,0,0,1,50.167,103.164Z" transform="translate(-23.42 -52.328)" fill="#fff"/>
  <path id="Path_1631" data-name="Path 1631" d="M68.052,107.944v.791H63.37V103.06h4.55v.791H64.392v1.636h2.756v.776H64.392v1.68Z" transform="translate(-32.236 -52.42)" fill="#fff"/>
  <path id="Path_1632" data-name="Path 1632" d="M84.242,107.944v.791H79.56V103.06h4.55v.791H80.577v1.636h2.761v.776H80.577v1.68Z" transform="translate(-40.471 -52.42)" fill="#fff"/>
  <path id="Path_1633" data-name="Path 1633" d="M109.491,103.851h-2.152v4.913h-1.017v-4.913H104.17v-.791h5.321Z" transform="translate(-52.99 -52.42)" fill="#fff"/>
  <path id="Path_1634" data-name="Path 1634" d="M126.459,103.06v5.68h-1.032v-2.457h-3.1v2.457H121.31v-5.68h1.017v2.427h3.1v-2.412Z" transform="translate(-61.709 -52.42)" fill="#fff"/>
  <path id="Path_1635" data-name="Path 1635" d="M144.157,107.944v.791H139.48V103.06h4.545v.791H140.5v1.636h2.756v.776H140.5v1.68Z" transform="translate(-70.952 -52.42)" fill="#fff"/>
  <path id="Path_1636" data-name="Path 1636" d="M167.056,108.74h-1.2L164,103.06h1.105l1.351,4.948,1.381-4.948h1.076l1.39,4.957,1.381-4.957h1.046l-1.852,5.68h-1.2l-.983-3.41-.324-1.317h0l-.314,1.307Z" transform="translate(-83.425 -52.42)" fill="#fff"/>
  <path id="Path_1637" data-name="Path 1637" d="M193.2,103.06v5.68h-1.027v-2.457h-3.1v2.457H188.06v-5.68h1.017v2.427h3.1v-2.412Z" transform="translate(-95.664 -52.42)" fill="#fff"/>
  <path id="Path_1638" data-name="Path 1638" d="M209.995,103.229a2.457,2.457,0,0,1,1.032,1.017,3.518,3.518,0,0,1,0,3.115,2.456,2.456,0,0,1-1.032,1.017,3.67,3.67,0,0,1-3.144,0,2.456,2.456,0,0,1-1.027-1.022,3.518,3.518,0,0,1,0-3.115,2.456,2.456,0,0,1,1.027-1.017,3.67,3.67,0,0,1,3.144,0Zm-2.948,1.007a2.678,2.678,0,0,0,0,3.135,2.014,2.014,0,0,0,2.786,0,2.678,2.678,0,0,0,0-3.135A2.014,2.014,0,0,0,207.047,104.236Z" transform="translate(-104.515 -52.323)" fill="#fff"/>
  <path id="Path_1639" data-name="Path 1639" d="M228.961,107.944v.791H224.48V103.06H225.5v4.913Z" transform="translate(-114.19 -52.42)" fill="#fff"/>
  <path id="Path_1640" data-name="Path 1640" d="M244.658,107.944v.791H240V103.06h4.55v.791h-3.567v1.636h2.761v.776h-2.761v1.68Z" transform="translate(-122.085 -52.42)" fill="#fff"/>
  <path id="Path_1641" data-name="Path 1641" d="M270.339,103.517a1.572,1.572,0,0,1,.594,1.3,1.543,1.543,0,0,1-.594,1.292,2.525,2.525,0,0,1-1.612.491h-1.4v2.142H266.31v-5.689h2.417A2.525,2.525,0,0,1,270.339,103.517Zm-.786,2.039a.875.875,0,0,0,.324-.737c0-.658-.437-.983-1.312-.983h-1.238V105.8h1.238a1.641,1.641,0,0,0,.988-.236Z" transform="translate(-135.469 -52.416)" fill="#fff"/>
  <path id="Path_1642" data-name="Path 1642" d="M283.337,108.74H282.32v-5.68h1.017Z" transform="translate(-143.613 -52.42)" fill="#fff"/>
  <path id="Path_1643" data-name="Path 1643" d="M295.924,108.362a3.11,3.11,0,0,1-1.621.413,3.316,3.316,0,0,1-1.572-.354A2.457,2.457,0,0,1,291.7,107.4a3.518,3.518,0,0,1,0-3.115,2.457,2.457,0,0,1,1.027-1.017,3.287,3.287,0,0,1,1.562-.354,3.247,3.247,0,0,1,1.582.354,2.068,2.068,0,0,1,.929,1.042l-.983.388a1.474,1.474,0,0,0-.55-.747,1.7,1.7,0,0,0-.943-.236,1.842,1.842,0,0,0-1.41.565,2.2,2.2,0,0,0-.531,1.562,2.245,2.245,0,0,0,.491,1.567,1.779,1.779,0,0,0,1.4.56,1.828,1.828,0,0,0,1.027-.275,1.543,1.543,0,0,0,.594-.811l.983.295A2.26,2.26,0,0,1,295.924,108.362Z" transform="translate(-148.201 -52.347)" fill="#fff"/>
  <path id="Path_1644" data-name="Path 1644" d="M313.181,103.851h-2.152v4.913h-1.017v-4.913H307.86v-.791h5.321Z" transform="translate(-156.605 -52.42)" fill="#fff"/>
  <path id="Path_1645" data-name="Path 1645" d="M329.994,106.563a2.118,2.118,0,0,1-.658,1.69,3.464,3.464,0,0,1-3.822,0,2.118,2.118,0,0,1-.658-1.69v-3.5h1.051v3.41a1.65,1.65,0,0,0,.378,1.194,1.965,1.965,0,0,0,2.329,0,1.651,1.651,0,0,0,.378-1.194v-3.39h1.027Z" transform="translate(-165.247 -52.42)" fill="#fff"/>
  <path id="Path_1646" data-name="Path 1646" d="M345.173,106.466h-1.351v2.27H342.81v-5.68h2.55a2.614,2.614,0,0,1,1.612.452,1.651,1.651,0,0,1,.241,2.27,1.9,1.9,0,0,1-.983.585l1.7,2.373h-1.169Zm-1.351-.766H345.3a1.543,1.543,0,0,0,.924-.231.958.958,0,0,0,0-1.4,1.543,1.543,0,0,0-.924-.231h-1.474Z" transform="translate(-174.384 -52.416)" fill="#fff"/>
  <path id="Path_1647" data-name="Path 1647" d="M364.382,107.944v.791H359.7V103.06h4.569v.791h-3.528v1.636H363.5v.776h-2.761v1.68Z" transform="translate(-182.975 -52.42)" fill="#fff"/>
</svg>
