<svg xmlns="http://www.w3.org/2000/svg" width="25.716" height="25.716" viewBox="0 0 25.716 25.716">
  <g id="Group_4" data-name="Group 4" transform="translate(978.5 -5419.5)">
    <g id="Group_4477" data-name="Group 4477" transform="translate(-1445 14197)">
      <g id="Group_4476" data-name="Group 4476">
        <circle id="Ellipse_48" data-name="Ellipse 48" cx="12.358" cy="12.358" r="12.358" transform="translate(467 -8777)" fill="none" stroke="#e6001c" stroke-miterlimit="10" stroke-width="1"/>
        <path id="Path_1093" data-name="Path 1093" d="M1091,1896.94a1.887,1.887,0,0,0-.944-1.632l-2.826,1.632a1.885,1.885,0,0,0,3.77,0Z" transform="translate(-605.466 -10666.017)" fill="#e6001c"/>
        <path id="Path_1094" data-name="Path 1094" d="M1095.23,1910.97a3.213,3.213,0,1,0-3.214-3.211A3.213,3.213,0,0,0,1095.23,1910.97Z" transform="translate(-615.874 -10669.543)" fill="#e6001c"/>
        <path id="Path_1095" data-name="Path 1095" d="M1103,1898.83a1.887,1.887,0,0,0,1.884-1.885l-2.825-1.63a1.883,1.883,0,0,0,.941,3.515Z" transform="translate(-627.93 -10666.017)" fill="#e6001c"/>
        <circle id="Ellipse_48-2" data-name="Ellipse 48" cx="12.358" cy="12.358" r="12.358" transform="translate(467 -8777)" fill="#e6001c" stroke="#e6001c" stroke-miterlimit="10" stroke-width="1"/>
        <path id="Path_1093-2" data-name="Path 1093" d="M1091,1896.94a1.887,1.887,0,0,0-.944-1.632l-2.826,1.632a1.885,1.885,0,0,0,3.77,0Z" transform="translate(-605.466 -10666.017)" fill="#fff"/>
        <path id="Path_1094-2" data-name="Path 1094" d="M1095.23,1910.97a3.213,3.213,0,1,0-3.214-3.211A3.213,3.213,0,0,0,1095.23,1910.97Z" transform="translate(-615.874 -10669.543)" fill="#fff"/>
        <path id="Path_1095-2" data-name="Path 1095" d="M1103,1898.83a1.887,1.887,0,0,0,1.884-1.885l-2.825-1.63a1.883,1.883,0,0,0,.941,3.515Z" transform="translate(-627.93 -10666.017)" fill="#fff"/>
      </g>
    </g>
  </g>
</svg>
