<svg xmlns="http://www.w3.org/2000/svg" width="24.43" height="24.43" viewBox="0 0 24.43 24.43">
  <g id="Group_4470" data-name="Group 4470" transform="translate(-637 8775)">
    <g id="Group_4469" data-name="Group 4469" transform="translate(54 -9691)">
      <circle id="Ellipse_50" data-name="Ellipse 50" cx="12.215" cy="12.215" r="12.215" transform="translate(583 916)" fill="#104cb4"/>
      <g id="Group_3901" data-name="Group 3901" transform="translate(1.374 -1.284)">
        <path id="Path_1099" data-name="Path 1099" d="M1091.02,1993.68a.932.932,0,0,0-.933-.933h-1.93a.931.931,0,0,0,0,1.862h1.93A.933.933,0,0,0,1091.02,1993.68Z" transform="translate(-491.171 -1068.532)" fill="#fff"/>
        <path id="Path_1100" data-name="Path 1100" d="M1089.08,2006.72a4.493,4.493,0,0,0,2.7.941,4.335,4.335,0,0,0,2.75-.988,2.465,2.465,0,0,1,3.129.047.923.923,0,0,0,1.3-.2.935.935,0,0,0-.193-1.3,4.342,4.342,0,0,0-5.457.05,2.469,2.469,0,0,1-3.131-.05.931.931,0,0,0-1.1,1.5Z" transform="translate(-500.209 -1073.02)" fill="#fff"/>
        <path id="Path_1101" data-name="Path 1101" d="M1102.98,1994.95a1.862,1.862,0,1,0-1.859-1.859,1.861,1.861,0,0,0,1.859,1.859Z" transform="translate(-513.499 -1067.937)" fill="#fff"/>
      </g>
    </g>
  </g>
</svg>
