<svg xmlns="http://www.w3.org/2000/svg" width="25.716" height="25.716" viewBox="0 0 25.716 25.716">
  <g id="Group_4486" data-name="Group 4486" transform="translate(-128.004 8774.64)">
    <g id="Group_4468" data-name="Group 4468" transform="translate(-142 -9690)">
      <circle id="Ellipse_51" data-name="Ellipse 51" cx="12.358" cy="12.358" r="12.358" transform="translate(270.504 915.86)" fill="#429a35" stroke="#429a35" stroke-miterlimit="10" stroke-width="1"/>
      <path id="Path_1102" data-name="Path 1102" d="M1102.66,1752.61a1.885,1.885,0,1,1-1.881,1.887A1.885,1.885,0,0,1,1102.66,1752.61Z" transform="translate(-815.717 -830.215)" fill="#fff"/>
      <path id="Path_1103" data-name="Path 1103" d="M1097.77,1765.89a1.046,1.046,0,1,1,1.246,1.681,9.016,9.016,0,0,1-5.412,1.888,8.529,8.529,0,0,1-5.43-1.94,1.049,1.049,0,0,1,1.381-1.58,6.527,6.527,0,0,0,8.215-.049Z" transform="translate(-810.765 -835.21)" fill="#fff"/>
      <path id="Path_1104" data-name="Path 1104" d="M1089.46,1752.61a1.885,1.885,0,1,1-1.335.552,1.885,1.885,0,0,1,1.335-.552Z" transform="translate(-810.672 -830.215)" fill="#fff"/>
    </g>
  </g>
</svg>
