<svg xmlns="http://www.w3.org/2000/svg" width="25.628" height="25.628" viewBox="0 0 25.628 25.628">
  <g id="Group_4485" data-name="Group 4485" transform="translate(-172.5 8777.5)">
    <circle id="Ellipse_49" data-name="Ellipse 49" cx="12.314" cy="12.314" r="12.314" transform="translate(173 -8777)" fill="#009ddd" stroke="#009ddd" stroke-miterlimit="10" stroke-width="1"/>
    <path id="Path_1096" data-name="Path 1096" d="M1090.99,1945.9a1.881,1.881,0,1,0-.551,1.331A1.881,1.881,0,0,0,1090.99,1945.9Z" transform="translate(-899.516 -10714.136)" fill="#fff"/>
    <path id="Path_1097" data-name="Path 1097" d="M1088.94,1959.13a.947.947,0,0,0,.761.384.934.934,0,0,0,.556-.182,5.866,5.866,0,0,1,7.388-.047.944.944,0,0,0,1.238-1.425,7.751,7.751,0,0,0-9.744-.046A.941.941,0,0,0,1088.94,1959.13Z" transform="translate(-908.664 -10718.77)" fill="#fff"/>
    <path id="Path_1098" data-name="Path 1098" d="M1103,1947.79a1.88,1.88,0,1,0-1.331-.551,1.88,1.88,0,0,0,1.331.551Z" transform="translate(-921.962 -10714.136)" fill="#fff"/>
  </g>
</svg>
