<svg xmlns="http://www.w3.org/2000/svg" width="25.716" height="25.716" viewBox="0 0 25.716 25.716">
  <g id="Group_4484" data-name="Group 4484" transform="translate(-214.5 8777.5)">
    <circle id="Ellipse_53" data-name="Ellipse 53" cx="12.358" cy="12.358" r="12.358" transform="translate(215 -8777)" fill="#9399ff" stroke="#9399ff" stroke-width="1"/>
    <path id="Path_1108" data-name="Path 1108" d="M1091.01,1801.61a1.882,1.882,0,1,0-.551,1.333,1.885,1.885,0,0,0,.551-1.333Z" transform="translate(-857.489 -10570.551)" fill="#fff"/>
    <path id="Path_1109" data-name="Path 1109" d="M1095.24,1815.76a3.208,3.208,0,1,0-3.2-3.208,3.208,3.208,0,0,0,3.2,3.208Z" transform="translate(-867.878 -10574.226)" fill="#fff"/>
    <path id="Path_1110" data-name="Path 1110" d="M1102.99,1803.5a1.885,1.885,0,1,0-1.886-1.885,1.885,1.885,0,0,0,1.886,1.885Z" transform="translate(-879.908 -10570.551)" fill="#fff"/>
  </g>
</svg>
